<svg width="671" height="578" viewBox="0 0 671 578" fill="none" xmlns="http://www.w3.org/2000/svg">
<path d="M261.938 433.113C221.835 433.113 187.747 419.077 159.675 391.005C131.603 362.933 117.567 328.845 117.567 288.742C117.567 248.639 131.603 214.551 159.675 186.479C187.747 158.407 221.835 144.371 261.938 144.371H502.557C542.66 144.371 576.747 158.407 604.819 186.479C632.892 214.551 646.928 248.639 646.928 288.742C646.928 328.845 632.892 362.933 604.819 391.005C576.747 419.077 542.66 433.113 502.557 433.113H261.938ZM261.938 397.021H502.557C532.634 397.021 558.2 386.493 579.254 365.439C600.308 344.385 610.835 318.82 610.835 288.742C610.835 258.665 600.308 233.099 579.254 212.045C558.2 190.991 532.634 180.464 502.557 180.464H261.938C231.861 180.464 206.295 190.991 185.241 212.045C164.187 233.099 153.66 258.665 153.66 288.742C153.66 318.82 164.187 344.385 185.241 365.439C206.295 386.493 231.861 397.021 261.938 397.021ZM503.123 349.498C519.99 349.498 534.338 343.595 546.169 331.788C557.999 319.981 563.914 305.645 563.914 288.778C563.914 271.911 558.011 257.562 546.204 245.732C534.397 233.901 520.061 227.986 503.194 227.986C486.327 227.986 471.978 233.889 460.147 245.696C448.317 257.503 442.402 271.84 442.402 288.707C442.402 305.574 448.305 319.922 460.112 331.753C471.919 343.583 486.256 349.498 503.123 349.498Z" fill="url(#paint0_linear_914_15)"/>
<g clip-path="url(#clip0_914_15)">
<path d="M448.481 268.262L298.987 417.677L448.481 567.093H277.64L213.567 503.053L128.131 417.663L277.625 268.247L448.481 268.262ZM277.64 12.1191L0 289.614L85.4357 375.004L448.481 12.1191H277.64Z" fill="white"/>
</g>
<defs>
<linearGradient id="paint0_linear_914_15" x1="646.747" y1="288.309" x2="292.205" y2="432.897" gradientUnits="userSpaceOnUse">
<stop stop-color="white"/>
<stop offset="1" stop-color="white" stop-opacity="0"/>
</linearGradient>
<clipPath id="clip0_914_15">
<rect width="448.481" height="554.974" fill="white" transform="translate(0 12.1191)"/>
</clipPath>
</defs>
</svg>
