<svg width="512" height="512" viewBox="0 0 512 512" fill="none" xmlns="http://www.w3.org/2000/svg">
<g clip-path="url(#clip0_989_25)">
<path d="M249.369 399.272L8.95183 203.508C8.45606 203.105 8.46124 202.346 8.96257 201.949L249.379 11.6186C250.035 11.0996 251 11.5665 251 12.4026V398.497C251 399.339 250.022 399.804 249.369 399.272Z" fill="white" stroke="black" stroke-width="10"/>
<path d="M495.014 202.722L252 400.601L252 10.3355L495.014 202.722Z" fill="white" stroke="black" stroke-width="10"/>
<path d="M400.333 362.669C400.333 442.382 335.713 507.002 256 507.002C176.287 507.002 111.667 442.382 111.667 362.669C111.667 282.956 176.287 218.336 256 218.336C335.713 218.336 400.333 282.956 400.333 362.669Z" fill="white" stroke="black" stroke-width="10"/>
<path d="M382.805 293.666H129.195C153.676 248.775 201.287 218.332 256 218.332C310.713 218.332 358.325 248.775 382.805 293.666Z" fill="white" stroke="black" stroke-width="10"/>
</g>
<defs>
<clipPath id="clip0_989_25">
<rect width="512" height="512" fill="white"/>
</clipPath>
</defs>
</svg>
